<svg xmlns="http://www.w3.org/2000/svg" viewBox="0 0 316.04 405.97"><title>Asset 1</title><g id="Layer_2" data-name="Layer 2"><g id="Layer_1-2" data-name="Layer 1"><path d="M126.2,115.27c1-.44,2.58-1.57,2.66-3.06a34.16,34.16,0,0,0-.18-8.14c-3.15-.5-6.36.35-9.06-1.44a7.65,7.65,0,0,1-3.55-8.27c4.05-1.83,7.93-4,11.85-6.08,2.56-1.34,3.77-2.94,3.64-5.64a14.16,14.16,0,0,1,6.82-13.14c8.72-5.55,18-9.47,28.72-5.9A26.3,26.3,0,0,1,181.25,74c3.53,5.31,4,11.38,3.43,17.57a5.32,5.32,0,0,1-.31,1.17c-1.06,2.94-2.21,5.88-2.14,9.08,0,2,.12,4-1.36,5.63.53,1,1.14,2,1.93,2,2.32.08,4.21,2,6.66,1.44a2.14,2.14,0,0,1,2,.42,3.74,3.74,0,0,0,4,.58c4.33-1.54,8,.38,11.63,2,4.4,2.05,7.84,5.61,11.58,8.67a12.31,12.31,0,0,0,4.23,2.74,9.85,9.85,0,0,1,4.68,3.1c1.41,1.71,3.11,3.18,4.59,4.66,3.55.12,5.54-2,6.8-4.76a9.22,9.22,0,0,1,2.66-4c-.5-1.35-.89-2.6-1.42-3.79C235.6,110.11,230.08,100,224.8,89.78c-4.91-9.52-10.31-18.79-15.22-28.31-4-7.72-7.5-15.68-11.34-23.48-4.61-9.34-8.61-19-12.93-28.41-1.07-2.33-.94-4.23.61-5.22,2.6-1.67,5-3.67,8.32-4.1,4.15-.52,4.46-.61,6.11,3.24,3,7.05,6.1,14.08,9,21.16,4.07,9.78,8.38,19.48,12,29.44,6.06,16.81,11.6,33.81,17.85,50.55a147.87,147.87,0,0,0,7.51,17.58c1.14-.37,2.16-.71,3.17.18s2.22,1,3.38,1.33c2.4.79,5.34.77,7.09,2.57,1.32,1.35,1.64,3.33,2.44,5,.88,1.8,2.21,3.36,2.05,5.62-.09,1.3,1,2.16,2.22,2.6a5.74,5.74,0,0,1,2.66,1.9c2.87,3.55,2.28,7.83,2.73,11.9a2,2,0,0,1-.21.88c-1.16,2.85-3,5.49-2.53,8.81.15,1.1-1.31,1.1-1.56,1.92,1.69,2.57,2.07,3.61,1.09,4.41-2.65,2.16-5.48,4.08-8.87,3.71a4.24,4.24,0,0,1-1.44-2.73c.33-1,1.76-1.85.7-3.23a3.18,3.18,0,0,0-1.78,1.86c-1,2.2-4.64,4.31-6.13,3.37-2.7-1.71-5.51-.66-8.1-1-2.07,1.55-3.87,3.44-6.38,3.52a8.45,8.45,0,0,0-5,1.81,11.54,11.54,0,0,1-3.19,1.65c-4.17,1.5-8.35,3-12.52,4.49-1.33.49-2.72.82-4.06,1.24-3.06,1-6,2.18-9,3.27a31.17,31.17,0,0,0,0,5.25c.36,1.89-1.35,3-1.4,4.83a6,6,0,0,1-1.95,3.86c-2.59,2.3-3.6,5.14-4.07,8.63-.69,5.16,1.3,9.2,4.21,12.86,1.66,2.09,4.57,3.36,5.53,6s.64,4.52,2.61,6.05a4.82,4.82,0,0,1,1.17,1.37,49,49,0,0,1,4.7,10.48,9.27,9.27,0,0,0,1.85,3.79c5,5.49,7.92,12.26,10.87,18.85,1.85,4.13,4.95,7.89,5.12,12.74a2.92,2.92,0,0,0,.69,1.34q3.71,5.39,7.46,10.73a28.83,28.83,0,0,0,5,5.69c4.43,3.63,8.83,7.22,11.79,12.27,2.3,3.93,5.46,7.27,7.1,11.69,1.36,3.67,3.9,6.9,5.31,10.56S274,341,275,345c.58,2.3,2.42,4.08,4.35,5.65-.48,2.5.53,4.29,2.28,6a7.74,7.74,0,0,1,2.39,4.92,4.32,4.32,0,0,0,1.32,2.66c1,1,2,2.07,2.83,3.19a3.43,3.43,0,0,0,3.42,1.53c2.87-.52,4.8.9,6.53,2.88.79.92,2.06,1.5,2.52,2.66.74,1.83-.69,4,0,5.77.42,1,2.19,1.18,2.4,2.51a6.31,6.31,0,0,0,1.85,4.16c3.05,3.23,6.45,6.09,9.26,9.61a8.18,8.18,0,0,1,1.85,6.45,3.09,3.09,0,0,1-3.48,3.06c-5.57-.12-11.12.13-16.68-1a56.1,56.1,0,0,0-9.6-1.13c-4.86-.09-9.59-1.25-11-7.09,0-.08-.15-.14-.43-.39-2.52.51-5.24-.33-6.06-2.07-1.23-2.61-3.81-4.39-4.83-7.25-.12-.34-2.38-2.62-2.38-5.67,0-4.64.65-3.9-2.33-7.15-2.52-2.75-5.53-4.9-8.37-7.28-3.69-3.08-5.78-7.69-9.6-10.72a4,4,0,0,1-.92-1.17c-1.87-3.28-5.74-9.77-7.65-13a141.46,141.46,0,0,0-8.46-12c-2.51-3.4-5.79-6.3-8.4-9.73-1.15-1.52-3.14-3-4-4.12-1.18-1.49-2.59-5.08-3.67-6.65a89.62,89.62,0,0,0-9.19-10.18,14.86,14.86,0,0,1-3.47-5.25c-1.62-4.12-5.19-6.51-9.15-8.1-3-1.23-5.48-2.91-6.46-6.16-.4-1.33-1-2.57-2.23-3.08a5.9,5.9,0,0,1-2.77-2.7,29.11,29.11,0,0,0-8-8.28,23.73,23.73,0,0,1-4.2-3.5c-3.31-3.9-7.49-6.54-12-8.9a57.34,57.34,0,0,1-9.1,3.1c-5.5,1.62-10.94,3.36-15.91,6.38-1.61,1-3,2.54-4.78,2.94-3.11.7-5.91,2.11-8.87,3.11a8.39,8.39,0,0,0-3.72,2,17.79,17.79,0,0,1-5.37,3.95,2.73,2.73,0,0,0-1.78,2.6c.07,3.46-1.82,6-4.12,8.15a34.2,34.2,0,0,0-6.24,8.22,20.08,20.08,0,0,1-4.13,4.81c-2.28,2.12-5.54,7.54-7.65,9.84-2.7,2.93-5.3,5.9-7.77,9-4.8,5.93-9,12.24-8.48,20.44a5.27,5.27,0,0,1-2,4.26,35.71,35.71,0,0,0-7.62,11.3c-.65,1.39-1.31,2.91-.9,4.41.93,3.35-.4,5.95-2.38,8.4a5.39,5.39,0,0,0-1.36,3,8.61,8.61,0,0,1-2.55,5.23c-1,1.07-2.23,2-3.18,2.85.59,1.67,2,2.09,2.29,3.47-1.86,2.75-.44,6.11-1.57,9.16-1.93.85-3.62,2.43-6.07,2.29a2.11,2.11,0,0,0-2.15,1.45c-.39,1.39-1.46,1.81-2.56,2.36a46.64,46.64,0,0,0-4.8,2.64c-7.55,4.93-16,4.76-24.44,4.11C1,402.6.14,401.35,0,398.94a10.4,10.4,0,0,1,3.51-8.38A20.27,20.27,0,0,0,7,385.73c.29-.48.36-1.1.82-1.56,3.11-3.11,6.41-6.05,8.56-10.05a8.71,8.71,0,0,0,.18-2.32c0-1.8,0-3.52,1.15-5.13,2.48-3.4,2.75-7.36,2.43-11.41,0-.1,0-.2,0-.3.39-7.53,4.54-19.64,6.24-27,.58-2.5.26-7.72,1.07-10.2.49-1.5,1.86-2.11,2.32-3.42,1.57-4.48,2.56-4.31,4.34-8.7a41,41,0,0,1,5-9.06c3.07-4.12,9-12.53,12.36-16.42,2.61-3,4-7.93,5.58-10.4.84-1.26,3.54-2.36,4.39-4.18,1.17-2.5,1.36-4.77,3.07-6.74,2.41-2.79,5.93-9.4,8.49-12.05.52-.54,1.27-1,1.54-1.83a14.23,14.23,0,0,1,3.29-5.14c5.09-5.54,10.59-10.71,15.32-16.61,1.67-2.08,4-3.73,4.89-6.32s2.63-3.62,4.67-4.86c.22-1,.54-2.12.68-3.22.36-2.92,1.06-5.64,3.14-7.91a9,9,0,0,0,1.61-3.91,25.91,25.91,0,0,1,2.66-7.11c2.8-4.6,2.76-9.65,2.76-14.73a1.68,1.68,0,0,0-.43-1.41c-1-.78-.69-1.84-.7-2.82,0-4.5.25-8.94-2-13.23-1.49-2.81-1.67-6.28-2.89-9.27-1.4-3.43-1.29-6.88-1.13-10.41a13,13,0,0,1,.13-2.26c2-5.93,7.45-9.43,11.67-13.45a15.54,15.54,0,0,0,2.67-3.53c.83-1.38,3.91-2.88,5.39-3.52Zm114.58,37.28a3.2,3.2,0,0,0-4.79-2,47.48,47.48,0,0,0-6,3c-2,1.3-4.72,2.4-7.07,1.18-4.56-2.38-6.81-3.08-11.23-3.11,0,3.41,0,6.63,0,9.84,0,1.35,1,1.87,1.79,2.59,3.14.48,6-.85,9.07-.95a35.59,35.59,0,0,0,11.91-2.58,23.23,23.23,0,0,0,6.91-4.94,24.89,24.89,0,0,0-.62-3Z"/></g></g></svg>